<?xml version="1.0" standalone="no"?>
<!DOCTYPE svg PUBLIC "-//W3C//DTD SVG 20010904//EN"
 "http://www.w3.org/TR/2001/REC-SVG-20010904/DTD/svg10.dtd">
<svg version="1.0" xmlns="http://www.w3.org/2000/svg"
 width="256.000000pt" height="256.000000pt" viewBox="0 0 256.000000 256.000000"
 preserveAspectRatio="xMidYMid meet">

<g transform="translate(0.000000,256.000000) scale(0.100000,-0.100000)"
fill="#000000" stroke="none">
<path d="M1153 2530 c-155 -17 -305 -61 -435 -126 l-68 -34 -155 0 -155 0 -32
-29 -33 -29 -3 -142 -4 -142 -42 -66 c-230 -356 -265 -799 -96 -1187 123 -279
366 -522 645 -645 370 -162 803 -136 1144 70 353 211 571 560 612 975 18 184
-16 409 -88 581 -21 50 -27 77 -22 99 12 54 9 169 -6 224 -58 218 -245 363
-470 362 -44 -1 -93 -4 -109 -9 -23 -6 -49 0 -115 24 -167 63 -401 93 -568 74z
m327 -41 c78 -11 255 -63 264 -78 3 -4 -11 -16 -32 -25 -33 -15 -87 -16 -512
-14 l-475 3 79 34 c210 88 428 114 676 80z m599 -98 c240 -75 374 -327 301
-564 -67 -215 -283 -353 -501 -318 -244 39 -422 280 -382 515 47 278 319 449
582 367z m-444 -61 c-4 -6 -163 -10 -446 -10 -426 0 -440 -1 -459 -20 -11 -11
-20 -29 -20 -40 0 -11 9 -29 20 -40 19 -19 33 -20 405 -20 250 0 385 -4 385
-10 0 -7 -208 -10 -605 -10 l-605 0 -1 48 c-2 68 0 75 23 95 19 16 65 17 665
17 427 0 642 -3 638 -10z m-55 -47 c0 -4 -10 -17 -22 -30 l-21 -23 -388 0
c-331 0 -388 2 -399 15 -10 12 -10 18 0 30 11 13 70 15 421 15 225 0 409 -3
409 -7z m-90 -155 c-5 -13 -14 -42 -20 -65 l-11 -43 -454 0 -454 0 -28 -24
-28 -24 -5 -609 -5 -608 -73 0 c-123 0 -112 -68 -112 721 l0 674 600 0 600 0
-10 -22z m-30 -148 c0 -6 -90 -10 -249 -10 -270 0 -281 -2 -281 -55 0 -53 10
-55 286 -55 163 0 254 -4 254 -10 0 -7 -165 -10 -475 -10 l-475 0 0 55 c0 42
5 60 20 75 19 19 33 20 470 20 293 0 450 -3 450 -10z m-1157 -1227 c24 -25 36
-28 107 -31 l80 -4 0 -135 c0 -74 5 -143 10 -154 10 -18 7 -19 -38 -19 -46 0
-50 3 -93 52 -162 189 -261 396 -300 627 -16 97 -14 302 4 407 25 141 90 310
166 431 l26 43 5 -595 5 -595 28 -27z m1157 1162 l0 -25 -244 0 c-246 0 -265
3 -252 35 4 13 45 15 251 15 l245 0 0 -25z m40 -145 c11 -21 20 -42 20 -44 0
-3 -183 -7 -407 -8 l-408 -3 0 -260 0 -260 573 -3 572 -2 0 142 0 143 95 0 95
0 0 -512 c0 -500 -1 -514 -20 -533 -20 -20 -33 -20 -740 -20 -707 0 -720 0
-740 20 -20 20 -20 33 -20 700 l0 680 480 0 480 0 20 -40z m938 -92 c41 -124
49 -165 61 -291 32 -335 -73 -650 -308 -925 -43 -49 -47 -52 -93 -52 -45 0
-48 1 -38 19 6 13 10 200 10 539 l0 520 46 16 c101 34 203 123 254 220 14 25
28 46 31 46 3 0 20 -42 37 -92z m-867 -27 c16 -19 27 -36 25 -38 -2 -2 -75
-35 -161 -73 l-158 -69 -231 101 c-127 56 -234 104 -239 108 -4 3 160 6 364 6
l371 -1 29 -34z m-584 -88 c134 -59 240 -110 235 -114 -6 -7 -151 -71 -414
-185 l-78 -33 0 219 c0 121 3 220 7 220 4 0 117 -48 250 -107z m691 -7 c28
-19 71 -42 96 -51 l46 -18 0 -128 0 -128 -112 50 c-62 28 -176 78 -252 112
-126 55 -137 62 -116 71 13 6 80 36 149 68 70 31 129 56 132 57 4 1 30 -14 57
-33z m-123 -241 c99 -43 184 -82 189 -87 6 -4 -205 -8 -469 -8 -263 0 -476 2
-474 5 3 2 111 51 240 108 l234 104 50 -22 c28 -12 131 -57 230 -100z m545
-942 c-1 -14 -164 -131 -242 -173 -298 -160 -671 -188 -990 -74 -103 37 -220
99 -308 164 -134 100 -214 90 719 90 451 0 821 -3 821 -7z"/>
<path d="M1902 2283 c-35 -31 -282 -470 -282 -502 0 -20 9 -36 26 -50 26 -20
39 -21 299 -21 393 0 387 -8 203 313 -150 262 -161 277 -197 277 -16 0 -38 -8
-49 -17z m64 -21 c19 -12 274 -461 274 -482 0 -10 -9 -24 -19 -30 -26 -14
-526 -14 -552 0 -10 6 -19 19 -19 30 0 18 238 438 268 473 16 18 30 21 48 9z"/>
<path d="M1904 2023 c5 -73 12 -111 21 -119 11 -8 10 -12 -6 -22 -24 -16 -24
-44 0 -66 41 -37 94 22 57 63 -9 10 -12 21 -7 27 5 5 13 57 17 117 l7 107 -48
0 -48 0 7 -107z m52 25 c-3 -29 -6 -69 -7 -88 -1 -27 -4 -23 -9 20 -13 94 -12
120 6 120 14 0 16 -8 10 -52z m2 -199 c-2 -6 -8 -10 -13 -10 -5 0 -11 4 -13
10 -2 6 4 11 13 11 9 0 15 -5 13 -11z"/>
<path d="M381 2291 c-40 -40 8 -97 55 -66 30 19 31 49 2 69 -29 20 -34 20 -57
-3z m49 -32 c0 -5 -7 -9 -15 -9 -15 0 -20 12 -9 23 8 8 24 -1 24 -14z"/>
<path d="M498 2299 c-26 -14 -23 -65 3 -79 16 -9 26 -8 45 5 30 19 31 49 2 69
-26 19 -27 19 -50 5z m42 -40 c0 -5 -7 -9 -15 -9 -15 0 -20 12 -9 23 8 8 24
-1 24 -14z"/>
<path d="M600 2285 c-26 -32 13 -81 48 -59 34 22 22 74 -18 74 -10 0 -23 -7
-30 -15z m40 -25 c0 -5 -4 -10 -10 -10 -5 0 -10 5 -10 10 0 6 5 10 10 10 6 0
10 -4 10 -10z"/>
<path d="M588 1934 c-14 -31 -1 -57 31 -62 28 -4 51 14 51 42 0 50 -62 65 -82
20z m52 -19 c0 -8 -7 -15 -15 -15 -16 0 -20 12 -8 23 11 12 23 8 23 -8z"/>
<path d="M698 1934 c-14 -31 -1 -57 31 -62 28 -4 51 14 51 42 0 50 -62 65 -82
20z m52 -19 c0 -8 -7 -15 -15 -15 -16 0 -20 12 -8 23 11 12 23 8 23 -8z"/>
<path d="M812 1948 c-28 -28 -7 -78 33 -78 12 0 26 5 33 12 7 7 12 21 12 33 0
12 -5 26 -12 33 -7 7 -21 12 -33 12 -12 0 -26 -5 -33 -12z m48 -33 c0 -8 -7
-15 -15 -15 -8 0 -15 7 -15 15 0 8 7 15 15 15 8 0 15 -7 15 -15z"/>
<path d="M1190 1051 c-23 -12 -44 -36 -62 -71 -24 -44 -28 -65 -28 -129 0 -95
13 -142 50 -185 40 -45 79 -59 145 -54 67 6 100 28 135 89 22 38 25 56 25 139
0 83 -3 101 -25 140 -36 63 -80 90 -149 90 -36 0 -69 -7 -91 -19z m154 -65
c58 -57 53 -249 -7 -291 -34 -23 -94 -19 -122 9 -59 59 -59 223 0 282 33 33
97 33 129 0z"/>
<path d="M800 935 c-46 -77 -77 -140 -81 -165 l-5 -40 98 0 98 0 0 -55 0 -55
35 0 35 0 0 55 c0 52 1 55 25 55 22 0 25 4 25 35 0 31 -3 35 -25 35 -22 0 -25
4 -25 40 0 39 -1 40 -35 40 -34 0 -35 -1 -35 -40 l0 -40 -50 0 c-27 0 -50 3
-50 6 0 6 99 172 135 228 l17 26 -43 0 -44 -1 -75 -124z"/>
<path d="M1603 926 c-57 -92 -83 -144 -83 -165 l0 -31 95 0 95 0 0 -55 0 -55
40 0 40 0 0 55 c0 52 1 55 25 55 22 0 25 4 25 35 0 30 -3 35 -24 35 -21 0 -25
5 -28 38 -3 35 -5 37 -40 40 l-38 3 0 -40 0 -41 -51 0 c-27 0 -48 3 -46 8 3 4
37 59 76 123 39 64 71 119 71 123 0 3 -17 6 -37 6 -38 0 -38 -1 -120 -134z"/>
<path d="M840 285 c0 -13 29 -15 200 -15 171 0 200 2 200 15 0 13 -29 15 -200
15 -171 0 -200 -2 -200 -15z"/>
<path d="M1275 290 c-3 -5 0 -13 8 -16 23 -8 82 0 82 11 0 14 -82 19 -90 5z"/>
<path d="M1397 294 c-15 -16 -5 -24 29 -24 24 0 34 4 32 13 -5 13 -50 22 -61
11z"/>
<path d="M1102 208 c7 -20 68 -23 68 -4 0 12 -10 16 -36 16 -24 0 -34 -4 -32
-12z"/>
<path d="M1195 210 c-3 -5 0 -13 8 -16 23 -8 82 0 82 11 0 14 -82 19 -90 5z"/>
<path d="M1320 205 c0 -13 29 -15 200 -15 171 0 200 2 200 15 0 13 -29 15
-200 15 -171 0 -200 -2 -200 -15z"/>
</g>
</svg>
